<svg xmlns="http://www.w3.org/2000/svg" xmlns:xlink="http://www.w3.org/1999/xlink" width="500" zoomAndPan="magnify" viewBox="0 0 375 374.999991" height="500" preserveAspectRatio="xMidYMid meet" version="1.0"><defs><g/><clipPath id="825c48ec62"><path d="M 148 121.621094 L 292.464844 121.621094 L 292.464844 253.621094 L 148 253.621094 Z M 148 121.621094 " clip-rule="nonzero"/></clipPath><clipPath id="2d9f8c9c0a"><path d="M 96 163 L 170 163 L 170 253.621094 L 96 253.621094 Z M 96 163 " clip-rule="nonzero"/></clipPath></defs><g fill="#000000" fill-opacity="1"><g transform="translate(352.734356, 75.43634)"><g><path d="M -124.734375 0 C -107.585938 0 -91.941406 2.945312 -77.796875 8.84375 C -63.648438 14.738281 -51.488281 22.828125 -41.3125 33.109375 C -31.132812 43.398438 -23.3125 55.347656 -17.84375 68.953125 C -12.375 82.566406 -9.640625 97.085938 -9.640625 112.515625 C -9.640625 127.953125 -12.375 142.472656 -17.84375 156.078125 C -23.3125 169.691406 -31.132812 181.640625 -41.3125 191.921875 C -51.488281 202.210938 -63.648438 210.300781 -77.796875 216.1875 C -91.941406 222.082031 -107.585938 225.03125 -124.734375 225.03125 L -153.671875 225.03125 L -153.671875 197.71875 L -125.703125 197.71875 C -113.484375 197.71875 -102.226562 195.570312 -91.9375 191.28125 C -81.65625 187 -72.707031 181 -65.09375 173.28125 C -57.488281 165.5625 -51.539062 156.554688 -47.25 146.265625 C -42.96875 135.984375 -40.828125 124.734375 -40.828125 112.515625 C -40.828125 100.515625 -42.96875 89.316406 -47.25 78.921875 C -51.539062 68.523438 -57.488281 59.46875 -65.09375 51.75 C -72.707031 44.039062 -81.65625 38.039062 -91.9375 33.75 C -102.226562 29.46875 -113.484375 27.328125 -125.703125 27.328125 L -153.671875 27.328125 L -153.671875 0 Z M -124.734375 0 "/></g></g></g><g clip-path="url(#825c48ec62)"><path fill="#000000" d="M 186.179688 241.792969 C 186.25 240.476562 186.3125 239.160156 186.378906 237.847656 C 186.164062 234.003906 185.898438 230.789062 185.675781 228.417969 C 185.164062 222.894531 184.828125 219.433594 183.882812 214.859375 C 183.417969 212.632812 182.964844 210.433594 182.015625 207.539062 C 181.730469 206.691406 180.699219 203.625 177.402344 197.085938 C 174.59375 191.503906 174.734375 192.53125 173.039062 188.859375 C 173.039062 188.859375 171.117188 184.71875 168.941406 177.203125 C 168.621094 176.148438 168.417969 175.074219 168.324219 173.976562 C 168.25 173.101562 168.25 172.222656 168.324219 171.34375 C 168.863281 169.632812 169.292969 167.898438 169.613281 166.136719 C 170.058594 163.714844 170.277344 162.507812 170.140625 160.875 C 169.851562 157.539062 168.261719 154.695312 166.941406 154.382812 C 166.441406 154.269531 165.9375 154.25 165.429688 154.328125 C 165.148438 154.386719 164.914062 154.472656 164.453125 154.644531 C 163.996094 154.816406 163.523438 155.011719 163.242188 155.136719 C 163.042969 155.230469 162.832031 155.289062 162.609375 155.3125 C 162.339844 155.347656 162.070312 155.328125 161.800781 155.261719 C 160.722656 155.019531 160.949219 155.210938 159.589844 154.847656 C 158.4375 154.542969 158.242188 154.398438 155.023438 153.195312 C 154.515625 153.011719 154.027344 152.789062 153.558594 152.523438 C 153.355469 152.402344 152.78125 152.074219 152.273438 151.632812 C 151.300781 150.789062 150.835938 149.773438 150.527344 149.074219 C 149.988281 147.835938 149.707031 146.539062 149.6875 145.183594 C 149.632812 144.917969 149.542969 144.5 149.40625 143.996094 C 149.144531 143.054688 149 142.8125 148.898438 142.136719 C 148.820312 141.609375 148.757812 141.171875 148.945312 140.683594 C 149.082031 140.324219 149.285156 140.09375 149.472656 139.886719 C 149.773438 139.546875 150.125 139.273438 150.527344 139.070312 L 151.96875 138.285156 C 153.277344 137.566406 153.378906 137.488281 154.171875 137.0625 C 154.851562 136.703125 155.652344 136.285156 156.261719 135.96875 C 157.335938 135.410156 157.578125 135.292969 157.96875 134.984375 C 158.4375 134.613281 158.851562 134.1875 159.207031 133.703125 C 159.457031 133.363281 159.71875 133 159.90625 132.453125 C 160.027344 132.105469 160.097656 131.746094 160.121094 131.378906 C 160.132812 130.808594 160.136719 130.238281 160.140625 129.660156 C 160.265625 129.285156 160.4375 128.933594 160.648438 128.597656 C 160.855469 128.28125 161.097656 127.992188 161.375 127.730469 C 161.785156 127.335938 162.046875 127.226562 162.949219 126.699219 C 163.234375 126.53125 162.625 126.882812 164.773438 125.582031 C 165.585938 125.085938 165.996094 124.839844 166.09375 124.789062 C 167.3125 124.058594 168.578125 123.425781 169.894531 122.890625 C 170.265625 122.746094 170.699219 122.578125 171.300781 122.390625 C 171.984375 122.175781 173.230469 121.792969 174.882812 121.679688 C 175.691406 121.617188 176.5 121.628906 177.308594 121.714844 C 177.800781 121.730469 178.289062 121.785156 178.769531 121.882812 C 179.15625 121.960938 179.585938 122.050781 180.117188 122.285156 C 180.402344 122.410156 180.671875 122.558594 180.929688 122.730469 L 181.988281 123.410156 L 183.550781 124.425781 L 184.730469 125.191406 C 186.359375 126.253906 187.804688 127.488281 188.335938 127.949219 C 189.019531 128.535156 189.714844 129.136719 190.570312 130.039062 C 191.429688 130.9375 191.902344 131.546875 192.082031 131.769531 C 192.671875 132.519531 193.074219 133.121094 193.371094 133.570312 C 193.964844 134.46875 194.367188 135.167969 194.550781 135.484375 C 195.40625 136.964844 196.148438 138.164062 197.632812 140.566406 C 197.953125 141.089844 197.796875 140.828125 199.855469 144.058594 C 202.367188 148.003906 202.710938 148.5625 203.597656 149.878906 C 204.089844 150.597656 204.582031 151.304688 205.574219 152.722656 C 206.675781 154.304688 207.265625 155.144531 207.890625 156.015625 C 209.933594 158.847656 211.683594 161.015625 213.113281 162.773438 C 214.191406 164.113281 215.273438 165.402344 215.398438 165.554688 L 216.40625 166.742188 C 218.296875 168.960938 219.253906 170.128906 220.949219 172.128906 C 222.742188 174.238281 224.113281 175.808594 226.375 178.410156 C 227.511719 179.71875 228.472656 180.820312 229.171875 181.617188 L 235.929688 189.382812 C 237.269531 190.933594 238.621094 192.484375 239.988281 194.039062 C 241.113281 195.324219 242.242188 196.597656 243.363281 197.859375 L 246.210938 201.054688 L 249.167969 204.566406 L 251.613281 207.707031 C 252.179688 208.507812 252.746094 209.304688 253.3125 210.105469 C 253.953125 211.164062 254.597656 212.21875 255.242188 213.277344 L 257.3125 217.234375 C 257.644531 218.050781 257.984375 218.871094 258.324219 219.6875 C 258.644531 220.507812 258.957031 221.398438 259.25 222.355469 C 259.539062 223.3125 259.746094 224.078125 259.933594 224.875 C 260.121094 225.667969 260.203125 226.328125 260.34375 227.058594 C 260.664062 228.847656 260.757812 230.652344 260.636719 232.46875 C 260.617188 232.851562 260.578125 233.265625 260.515625 233.710938 C 260.453125 234.15625 260.402344 234.417969 260.335938 234.730469 L 260.335938 236.59375 C 260.394531 236.941406 260.46875 237.28125 260.5625 237.617188 C 260.699219 238.085938 260.851562 238.605469 261.179688 239.1875 C 261.527344 239.796875 261.976562 240.320312 262.527344 240.757812 C 262.777344 240.957031 263.160156 241.253906 263.738281 241.453125 C 264.058594 241.566406 264.390625 241.628906 264.730469 241.636719 C 265.082031 241.636719 265.421875 241.582031 265.753906 241.476562 C 266.28125 241.308594 266.625 241.070312 267.042969 240.789062 C 267.53125 240.457031 267.980469 240.082031 268.394531 239.664062 C 269.265625 238.96875 270.050781 238.191406 270.757812 237.328125 C 271.289062 236.6875 271.765625 236.003906 272.183594 235.28125 C 272.496094 234.730469 272.777344 234.160156 273.023438 233.574219 C 273.421875 232.601562 273.722656 231.601562 273.921875 230.570312 C 274.296875 228.632812 274.234375 227.097656 274.171875 225.867188 C 274.128906 225.03125 274.0625 223.785156 273.6875 222.210938 C 273.492188 221.40625 273.316406 220.675781 272.914062 219.832031 C 272.566406 219.097656 271.859375 217.875 270.4375 216.734375 C 269.703125 216.242188 268.667969 215.535156 267.460938 214.632812 C 266.078125 213.601562 265.289062 213.015625 264.371094 212.140625 C 263.324219 211.152344 262.390625 210.066406 261.5625 208.886719 C 261.207031 208.371094 260.949219 207.808594 260.785156 207.207031 C 260.636719 206.660156 260.570312 206.105469 260.574219 205.539062 C 260.570312 204.992188 260.621094 204.453125 260.730469 203.917969 C 260.773438 203.640625 260.847656 203.371094 260.945312 203.109375 C 261.148438 202.597656 261.421875 202.261719 261.628906 202.007812 C 261.847656 201.726562 262.097656 201.476562 262.382812 201.261719 C 262.820312 200.933594 263.207031 200.792969 263.59375 200.660156 C 264.191406 200.457031 264.808594 200.335938 265.441406 200.300781 C 265.742188 200.273438 266.175781 200.246094 266.6875 200.214844 C 267.410156 200.179688 267.78125 200.160156 268.25 200.164062 C 268.71875 200.167969 269.175781 200.210938 269.65625 200.257812 C 270.589844 200.351562 271.320312 200.472656 271.664062 200.535156 C 273.914062 200.941406 276.070312 201.640625 278.128906 202.636719 C 279.230469 203.148438 280.003906 203.585938 280.8125 204.054688 C 281.941406 204.691406 282.703125 205.132812 283.664062 205.847656 C 284.109375 206.183594 284.5 206.503906 284.921875 206.847656 C 285.664062 207.460938 286.085938 207.8125 286.585938 208.289062 C 287.265625 208.933594 287.890625 209.628906 288.460938 210.367188 C 288.976562 211.042969 289.449219 211.753906 289.871094 212.492188 C 290.484375 213.558594 290.996094 214.671875 291.40625 215.832031 C 291.761719 216.816406 292.023438 217.824219 292.195312 218.859375 C 292.324219 219.65625 292.398438 220.457031 292.410156 221.265625 L 292.421875 224.84375 C 292.394531 225.503906 292.335938 226.339844 292.226562 227.304688 C 292.097656 228.414062 291.90625 229.511719 291.65625 230.601562 C 291.34375 231.957031 290.925781 233.28125 290.398438 234.570312 C 289.914062 235.730469 289.347656 236.851562 288.691406 237.925781 C 287.726562 239.527344 286.828125 240.605469 286.175781 241.378906 C 285.253906 242.46875 284.273438 243.492188 283.226562 244.457031 C 282.222656 245.386719 280.597656 246.878906 278.203125 248.355469 C 277.023438 249.082031 275.792969 249.71875 274.519531 250.265625 C 272.191406 251.296875 269.777344 252.058594 267.277344 252.550781 L 262.167969 253.242188 L 259.472656 253.347656 C 254.894531 253.335938 251.207031 253.34375 248.628906 253.347656 C 245.578125 253.351562 243.746094 253.363281 240.34375 253.359375 L 235.25 253.347656 L 228.90625 253.359375 L 221.8125 253.367188 L 217.332031 253.347656 C 217.378906 253.058594 217.382812 252.769531 217.339844 252.480469 C 217.289062 252.105469 217.179688 251.851562 216.972656 251.375 C 216.816406 251.019531 216.644531 250.671875 216.453125 250.335938 C 216.433594 250.195312 216.433594 250.054688 216.453125 249.914062 C 216.496094 249.644531 216.613281 249.410156 216.796875 249.210938 C 216.988281 248.945312 217.160156 248.667969 217.304688 248.375 C 217.476562 248.023438 217.601562 247.695312 217.800781 247.023438 C 218 246.355469 218.152344 245.824219 218.316406 244.988281 C 218.457031 244.285156 218.558594 243.578125 218.621094 242.867188 L 218.621094 239.480469 C 218.570312 239.265625 218.496094 238.941406 218.417969 238.546875 C 218.25 237.738281 218.199219 237.28125 218.128906 236.894531 C 217.988281 236.0625 217.769531 235.476562 217.453125 234.632812 C 217.132812 233.78125 216.75 232.960938 216.296875 232.171875 C 215.753906 231.230469 215.117188 230.359375 214.386719 229.554688 C 213.714844 228.789062 213.054688 228.183594 211.988281 227.1875 L 211.226562 226.496094 L 211.226562 224.257812 C 211.359375 223.671875 211.535156 223.097656 211.753906 222.539062 C 211.972656 221.972656 212.1875 221.425781 212.609375 220.789062 C 212.898438 220.359375 213.027344 220.273438 213.421875 219.664062 C 213.632812 219.355469 213.820312 219.03125 213.988281 218.695312 C 214.242188 218.175781 214.433594 217.636719 214.5625 217.074219 C 214.792969 216.308594 214.949219 215.644531 215.050781 215.132812 C 215.199219 214.363281 215.28125 213.75 215.332031 213.277344 C 215.382812 212.808594 215.425781 212.402344 215.453125 212.101562 C 215.457031 211.054688 215.460938 210.007812 215.472656 208.957031 C 215.363281 208.53125 215.246094 208.171875 215.160156 207.90625 C 215.070312 207.640625 215.011719 207.507812 214.878906 207.367188 C 214.734375 207.222656 214.5625 207.132812 214.359375 207.101562 C 214.289062 207.089844 214.089844 207.074219 213.703125 207.285156 C 213.40625 207.453125 213.222656 207.632812 213.023438 207.824219 C 212.289062 208.523438 212.308594 208.425781 211.921875 208.839844 C 211.714844 209.058594 211.640625 209.15625 211.191406 209.722656 C 210.242188 210.917969 210.242188 210.871094 209.84375 211.398438 C 209.445312 211.925781 209.132812 212.335938 208.789062 212.894531 C 208.445312 213.457031 208.164062 214.070312 207.667969 215.171875 C 207.171875 216.277344 206.894531 216.890625 206.730469 217.457031 C 206.628906 217.816406 206.558594 218.117188 206.359375 218.550781 C 206.152344 219.003906 205.886719 219.421875 205.5625 219.800781 C 205.5 219.839844 205.4375 219.863281 205.363281 219.875 C 205.148438 219.894531 205 219.722656 204.976562 219.695312 C 204.847656 219.605469 204.734375 219.496094 204.644531 219.367188 C 204.574219 219.265625 204.519531 219.136719 204.410156 218.878906 C 204.363281 218.757812 204.289062 218.597656 204.226562 218.445312 C 203.992188 217.957031 203.667969 217.304688 203.25 216.535156 C 202.921875 215.925781 202.402344 214.972656 201.746094 213.996094 C 201.085938 213.015625 200.425781 212.234375 199.183594 210.824219 C 198.558594 210.109375 197.71875 209.179688 196.6875 208.109375 C 196.554688 207.953125 196.394531 207.839844 196.199219 207.769531 C 195.792969 207.632812 195.441406 207.800781 195.292969 207.875 C 195.035156 208 194.824219 208.183594 194.664062 208.425781 C 194.597656 208.707031 194.523438 208.996094 194.453125 209.277344 C 194.414062 209.640625 194.382812 210.007812 194.347656 210.367188 C 194.351562 210.597656 194.367188 210.921875 194.402344 211.304688 C 194.453125 211.808594 194.507812 212.195312 194.585938 212.671875 C 194.804688 213.953125 194.910156 214.597656 195.066406 215.195312 C 195.199219 215.714844 195.359375 216.222656 195.554688 216.722656 C 195.726562 217.152344 195.882812 217.460938 196.191406 218.0625 C 196.277344 218.246094 196.640625 218.953125 197.234375 219.996094 C 197.828125 221.035156 197.671875 220.71875 198.277344 221.773438 C 198.59375 222.335938 198.9375 222.949219 199.300781 223.367188 C 199.441406 223.527344 199.574219 223.695312 199.71875 223.851562 C 199.867188 224.011719 199.992188 224.136719 200.078125 224.289062 C 200.171875 224.449219 200.234375 224.617188 200.269531 224.800781 L 200.269531 226.125 C 200.199219 226.277344 200.109375 226.453125 200 226.652344 C 199.871094 226.882812 199.726562 227.105469 199.5625 227.3125 C 199.441406 227.472656 199.308594 227.625 199.171875 227.769531 C 199.171875 227.769531 199.039062 227.914062 198.382812 228.699219 C 197.726562 229.484375 197.140625 230.40625 196.617188 231.230469 C 196.179688 231.921875 195.871094 232.453125 195.683594 232.777344 C 195.34375 233.375 195.167969 233.683594 194.957031 234.136719 C 194.699219 234.703125 194.484375 235.285156 194.316406 235.882812 C 194.085938 236.660156 193.921875 237.453125 193.828125 238.261719 C 193.75 238.898438 193.746094 239.339844 193.730469 240.191406 C 193.710938 241.453125 193.699219 242.085938 193.808594 242.867188 C 193.957031 243.878906 194.207031 244.636719 194.414062 245.242188 C 194.621094 245.859375 194.863281 246.460938 195.144531 247.042969 C 195.601562 247.984375 196.152344 248.859375 196.800781 249.679688 L 196.785156 250.402344 C 196.625 250.496094 196.472656 250.601562 196.324219 250.71875 C 196.019531 250.96875 195.746094 251.246094 195.507812 251.558594 C 195.234375 251.902344 195.015625 252.1875 194.851562 252.628906 C 194.765625 252.875 194.710938 253.128906 194.6875 253.390625 L 193.648438 253.390625 C 193.167969 253.390625 192.820312 253.394531 192.726562 253.402344 C 190.570312 253.425781 188.761719 253.351562 188.761719 253.351562 C 187.683594 253.304688 187.59375 253.269531 186.621094 253.25 C 185.644531 253.226562 185.511719 253.25 184.699219 253.242188 C 183.238281 253.214844 181.789062 253.078125 180.347656 252.824219 C 179.753906 252.71875 179.226562 252.605469 178.714844 252.1875 C 178.535156 252.039062 178.054688 251.632812 177.851562 250.925781 C 177.714844 250.449219 177.78125 250.070312 177.875 249.472656 C 178 248.734375 178.242188 248.03125 178.59375 247.371094 C 178.820312 246.925781 179.09375 246.511719 179.414062 246.128906 C 179.773438 245.695312 180.191406 245.324219 180.660156 245.011719 C 181.355469 244.566406 182.109375 244.304688 182.925781 244.226562 L 184.332031 244.164062 C 184.542969 244.136719 184.742188 244.074219 184.933594 243.976562 C 185.179688 243.847656 185.390625 243.667969 185.558594 243.441406 C 186.042969 242.839844 186.15625 242.097656 186.179688 241.792969 Z M 186.179688 241.792969 " fill-opacity="1" fill-rule="nonzero"/></g><g clip-path="url(#2d9f8c9c0a)"><path fill="#000000" d="M 139.957031 253.574219 C 142.257812 253.605469 144.601562 253.613281 146.996094 253.59375 C 149.273438 253.578125 151.519531 253.535156 153.722656 253.46875 C 154.210938 253.535156 154.6875 253.488281 155.148438 253.328125 C 155.296875 253.273438 155.441406 253.210938 155.578125 253.140625 C 155.664062 253.035156 155.730469 252.917969 155.769531 252.789062 C 155.859375 252.515625 155.816406 252.269531 155.753906 252.003906 C 155.628906 251.523438 155.453125 251.0625 155.226562 250.621094 C 155.058594 250.289062 154.851562 249.984375 154.601562 249.710938 C 154.265625 249.332031 153.875 249.019531 153.433594 248.777344 C 152.855469 248.445312 152.238281 248.222656 151.578125 248.117188 L 146.035156 248.25 L 145.363281 248.234375 L 145.363281 247.667969 C 145.507812 247.585938 145.714844 247.457031 145.957031 247.289062 C 146.195312 247.125 146.402344 246.933594 146.988281 246.386719 C 147.574219 245.835938 147.914062 245.519531 148.113281 245.300781 C 148.308594 245.082031 148.457031 244.914062 148.757812 244.523438 C 149.253906 243.886719 149.765625 243.226562 150.316406 242.265625 C 150.757812 241.488281 151.136719 240.679688 151.449219 239.839844 C 151.726562 239.128906 151.941406 238.402344 152.09375 237.652344 C 152.195312 237.167969 152.253906 236.742188 152.289062 236.429688 L 152.289062 233.707031 C 152.238281 233.421875 152.164062 233.0625 152.046875 232.660156 C 151.941406 232.273438 151.816406 231.898438 151.671875 231.527344 C 151.507812 231.089844 151.3125 230.667969 151.09375 230.253906 C 150.910156 229.917969 150.707031 229.589844 150.480469 229.277344 C 150.289062 229.007812 150.082031 228.753906 149.859375 228.507812 L 150.070312 228.507812 L 150.75 229.097656 C 151.160156 229.453125 151.222656 229.5 151.359375 229.636719 C 151.601562 229.886719 151.8125 230.152344 152 230.445312 C 152.492188 231.128906 152.800781 231.890625 152.925781 232.726562 C 152.976562 233.015625 153.007812 233.304688 153.019531 233.597656 C 153.0625 234.265625 153.097656 234.941406 153.128906 235.628906 C 153.1875 236.84375 153.226562 238.039062 153.238281 239.207031 C 153.332031 240.175781 153.449219 241.007812 153.558594 241.671875 C 153.636719 242.160156 153.753906 242.898438 153.980469 243.867188 C 154.117188 244.453125 154.265625 245.097656 154.535156 245.914062 C 154.800781 246.730469 154.890625 246.773438 155.238281 247.765625 C 155.402344 248.222656 155.417969 248.328125 155.976562 250.175781 C 156.433594 251.699219 156.492188 251.859375 156.644531 252.105469 C 157.140625 252.910156 157.863281 253.335938 158.402344 253.574219 L 161.5 253.589844 L 162.59375 253.578125 C 162.921875 253.554688 163.230469 253.472656 163.523438 253.332031 C 163.738281 253.226562 164.050781 253.074219 164.324219 252.726562 C 164.515625 252.46875 164.644531 252.183594 164.703125 251.871094 L 164.695312 250.625 C 164.535156 250.234375 164.308594 249.882812 164.019531 249.574219 C 163.640625 249.160156 163.183594 248.863281 162.652344 248.679688 L 161.515625 248.679688 C 161.339844 248.566406 161.183594 248.433594 161.042969 248.273438 C 160.882812 248.085938 160.753906 247.878906 160.660156 247.652344 C 160.390625 247.070312 160.242188 246.484375 160.125 245.996094 C 160.011719 245.511719 159.902344 245.0625 159.769531 244.359375 C 159.640625 243.65625 159.566406 243.019531 159.550781 242.894531 C 159.550781 242.894531 159.488281 242.316406 159.453125 241.683594 C 159.359375 240.070312 159.5 238.050781 159.527344 237.691406 C 159.550781 237.328125 159.605469 236.773438 159.691406 236.160156 C 159.84375 235.101562 160.023438 234.328125 160.203125 233.539062 C 160.515625 232.191406 160.835938 231.136719 161.023438 230.539062 C 161.210938 229.941406 161.398438 229.414062 161.824219 228.230469 C 162.542969 226.1875 162.585938 226.160156 162.917969 225.160156 C 163.453125 223.558594 163.746094 222.457031 163.8125 222.199219 C 164.027344 221.367188 164.230469 220.589844 164.386719 219.535156 C 164.507812 218.738281 164.5625 218.0625 164.59375 217.566406 C 164.589844 216.804688 164.589844 216.046875 164.585938 215.289062 C 164.546875 215.074219 164.492188 214.753906 164.421875 214.367188 C 164.277344 213.527344 164.203125 213.109375 164.140625 212.816406 C 164 212.179688 163.820312 211.558594 163.59375 210.949219 C 163.253906 210.023438 162.878906 209.320312 162.335938 208.292969 C 161.910156 207.507812 161.671875 207.121094 161.53125 206.429688 C 161.449219 206.03125 161.414062 205.628906 161.429688 205.222656 C 161.417969 204.910156 161.453125 204.605469 161.539062 204.304688 C 161.621094 204.039062 161.703125 203.75 161.953125 203.488281 C 162.136719 203.300781 162.355469 203.175781 162.609375 203.109375 C 163.195312 203.015625 163.683594 202.914062 164.035156 202.824219 C 164.800781 202.640625 165.4375 202.476562 166.1875 202.085938 C 166.476562 201.9375 166.726562 201.808594 167.023438 201.5625 C 167.46875 201.191406 167.722656 200.808594 167.980469 200.414062 C 168.234375 200.023438 168.28125 199.855469 168.839844 198.839844 L 169.230469 198.148438 C 169.28125 197.925781 169.28125 197.703125 169.230469 197.484375 C 169.164062 197.210938 169.039062 197.050781 168.910156 196.851562 C 168.777344 196.652344 168.625 196.320312 168.414062 195.808594 C 168.121094 195.113281 168.003906 194.515625 167.921875 194.074219 C 167.851562 193.703125 167.800781 193.332031 167.773438 192.953125 C 167.765625 192.238281 167.757812 191.519531 167.753906 190.804688 C 167.703125 190.558594 167.636719 190.316406 167.554688 190.074219 C 167.484375 189.855469 167.128906 188.824219 166.136719 187.625 C 165.753906 187.171875 165.335938 186.753906 164.886719 186.367188 C 164 185.601562 163.035156 184.945312 161.996094 184.40625 C 161.726562 184.277344 161.488281 184.113281 161.273438 183.902344 C 161.023438 183.65625 160.824219 183.371094 160.675781 183.050781 C 160.3125 182.351562 160.011719 181.628906 159.769531 180.882812 C 159.578125 180.28125 159.421875 179.671875 159.304688 179.050781 C 159.203125 178.511719 159.128906 177.96875 159.085938 177.421875 C 159.089844 177.273438 159.054688 177.140625 158.976562 177.015625 C 158.820312 176.777344 158.558594 176.730469 158.449219 176.710938 C 158.339844 176.6875 158.25 176.683594 157.90625 176.769531 C 157.671875 176.820312 157.445312 176.898438 157.226562 177 C 156.808594 177.199219 156.421875 177.453125 156.070312 177.757812 C 155.832031 177.964844 155.328125 178.441406 154.605469 179.5625 C 154.25 180.117188 153.984375 180.632812 153.46875 181.640625 C 152.816406 182.902344 152.789062 183.054688 152.398438 183.6875 C 151.855469 184.574219 151.472656 184.988281 151.078125 185.304688 C 150.789062 185.53125 150.742188 185.515625 150.367188 185.792969 C 150.226562 185.898438 149.714844 186.289062 149 187.089844 C 148.199219 187.960938 147.519531 188.914062 146.957031 189.949219 C 145.859375 191.972656 145.277344 194.132812 145.203125 196.429688 C 145.121094 196.734375 145 197.128906 144.835938 197.566406 C 144.613281 198.167969 144.355469 198.753906 144.054688 199.320312 C 143.570312 200.242188 143.121094 200.851562 142.285156 201.980469 C 142.066406 202.273438 141.65625 202.792969 140.847656 203.824219 C 139.945312 204.980469 139.492188 205.554688 139.199219 205.917969 C 138.316406 206.992188 137.613281 207.777344 137.210938 208.222656 C 136.335938 209.179688 136.109375 209.371094 134.113281 211.414062 C 132.117188 213.457031 132.179688 213.425781 130.75 214.871094 C 129.488281 216.140625 129.402344 216.195312 128.671875 216.964844 C 127.695312 217.984375 126.921875 218.789062 126 219.9375 C 125.371094 220.71875 124.714844 221.539062 123.972656 222.742188 C 123.472656 223.558594 123.023438 224.398438 122.632812 225.273438 C 122.035156 226.613281 121.578125 228.003906 121.261719 229.4375 C 120.957031 230.804688 120.777344 232.183594 120.726562 233.578125 L 120.726562 237.742188 C 120.789062 238.914062 120.875 239.886719 120.957031 240.601562 C 121.035156 241.3125 121.105469 241.902344 121.199219 242.601562 C 121.292969 243.296875 121.398438 244.035156 121.566406 245.066406 C 121.6875 245.773438 121.796875 246.371094 121.882812 246.808594 C 121.921875 246.910156 121.925781 247.015625 121.886719 247.117188 C 121.851562 247.21875 121.785156 247.300781 121.691406 247.355469 C 121.53125 247.441406 121.316406 247.394531 121.152344 247.242188 C 120.929688 247.128906 120.714844 246.996094 120.515625 246.839844 C 120.167969 246.570312 119.863281 246.253906 119.609375 245.894531 C 119.429688 245.65625 119.113281 245.195312 118.601562 244.050781 C 118.246094 243.265625 118.027344 242.652344 117.785156 241.988281 C 117.546875 241.324219 117.335938 240.730469 117.113281 239.96875 C 116.835938 239.003906 116.617188 238.03125 116.453125 237.046875 C 116.304688 236.136719 116.015625 234.339844 116.109375 232.097656 C 116.140625 231.402344 116.203125 230.753906 116.234375 230.433594 C 116.292969 229.875 116.386719 228.882812 116.578125 227.867188 C 116.824219 226.570312 117.148438 225.664062 117.597656 224.390625 C 117.839844 223.71875 118.183594 222.875 118.871094 221.195312 C 119.242188 220.28125 119.550781 219.550781 119.894531 218.726562 C 120.617188 217.011719 120.742188 216.738281 120.980469 216.148438 C 121.382812 215.179688 121.9375 213.75 122.527344 211.90625 C 122.695312 211.351562 122.855469 210.738281 122.996094 210.0625 C 123.136719 209.386719 123.214844 208.816406 123.277344 208.261719 C 123.308594 207.96875 123.339844 207.5625 123.363281 207.078125 C 123.386719 206.648438 123.386719 206.222656 123.363281 205.792969 C 123.3125 205.082031 123.164062 204.394531 122.914062 203.730469 C 122.683594 203.109375 122.371094 202.539062 121.972656 202.011719 C 121.679688 201.636719 121.347656 201.304688 120.976562 201.011719 C 120.980469 200.898438 120.964844 200.792969 120.921875 200.6875 C 120.886719 200.59375 120.835938 200.511719 120.773438 200.4375 C 120.59375 200.183594 120.398438 199.949219 120.1875 199.722656 C 119.878906 199.40625 119.722656 199.304688 119.554688 199.253906 C 119.441406 199.214844 119.324219 199.195312 119.207031 199.195312 L 118.714844 199.195312 L 118.246094 199.183594 C 118.183594 199.070312 118.136719 198.96875 118.097656 198.902344 C 118.0625 198.835938 118.035156 198.71875 118.035156 198.691406 C 118.042969 198.582031 118.085938 198.492188 118.167969 198.421875 L 118.601562 198.121094 C 118.828125 197.964844 119.289062 197.644531 119.675781 197.363281 C 120.0625 197.082031 120.484375 196.730469 121.226562 196.113281 L 122.035156 195.421875 L 122.375 195.421875 C 122.382812 195.472656 122.402344 195.523438 122.433594 195.566406 C 122.460938 195.609375 122.492188 195.648438 122.527344 195.6875 C 122.609375 195.789062 122.605469 195.808594 122.636719 195.835938 C 122.667969 195.859375 122.765625 195.882812 122.949219 195.792969 C 123.132812 195.703125 123.257812 195.507812 123.457031 195.304688 C 123.851562 194.902344 124.222656 194.480469 124.566406 194.035156 C 125.214844 193.183594 125.597656 192.398438 125.882812 191.808594 C 126.285156 190.980469 126.5 190.351562 126.851562 189.351562 C 127.164062 188.457031 127.351562 187.792969 127.582031 186.988281 C 127.945312 185.714844 128.054688 185.175781 128.109375 184.886719 C 128.210938 184.332031 128.269531 183.867188 128.308594 183.53125 L 128.296875 181.4375 C 128.226562 180.984375 128.128906 180.539062 128 180.097656 C 127.9375 179.894531 127.875 179.695312 127.804688 179.511719 L 127.804688 179.046875 C 127.925781 178.789062 128.039062 178.527344 128.160156 178.269531 L 128.933594 177.125 L 129.519531 176.015625 L 129.675781 175.5 L 129.660156 174.574219 L 129.992188 174.253906 L 130.640625 174.230469 L 131.542969 174.246094 C 131.8125 174.195312 132.070312 174.121094 132.320312 174.015625 C 132.519531 173.929688 132.710938 173.832031 132.894531 173.722656 C 133.125 173.589844 133.3125 173.464844 133.457031 173.363281 C 133.492188 173.324219 133.535156 173.28125 133.570312 173.234375 C 133.605469 173.1875 133.632812 173.160156 133.664062 173.125 L 133.773438 173.125 C 133.800781 173.167969 133.828125 173.214844 133.851562 173.261719 C 133.90625 173.359375 133.949219 173.460938 133.976562 173.570312 C 133.976562 173.867188 133.984375 174.164062 133.984375 174.460938 C 133.964844 174.527344 133.945312 174.597656 133.917969 174.664062 C 133.878906 174.753906 133.828125 174.84375 133.773438 174.929688 C 133.726562 175.003906 133.6875 175.082031 133.652344 175.164062 C 133.632812 175.222656 133.574219 175.402344 133.660156 175.558594 C 133.6875 175.613281 133.726562 175.660156 133.777344 175.695312 C 133.828125 175.699219 133.875 175.695312 133.925781 175.6875 C 133.980469 175.679688 134.027344 175.664062 134.078125 175.636719 C 134.175781 175.574219 134.265625 175.503906 134.351562 175.425781 C 134.492188 175.300781 134.617188 175.15625 134.730469 175.003906 C 135.453125 173.992188 135.492188 173.941406 135.566406 173.789062 C 135.6875 173.535156 135.789062 173.277344 135.871094 173.007812 C 136.007812 172.609375 136.117188 172.199219 136.195312 171.785156 C 136.226562 171.445312 136.265625 171.109375 136.296875 170.769531 C 136.296875 170.585938 136.289062 170.402344 136.289062 170.21875 C 136.289062 169.917969 136.257812 169.621094 136.191406 169.328125 C 136.136719 169.101562 136.066406 168.878906 135.972656 168.664062 L 135.550781 167.761719 C 135.476562 167.507812 135.40625 167.25 135.335938 166.988281 C 135.304688 166.617188 135.265625 166.246094 135.230469 165.875 C 135.175781 165.71875 135.105469 165.570312 135.027344 165.429688 C 134.90625 165.222656 134.761719 165.035156 134.59375 164.867188 C 134.402344 164.664062 134.195312 164.476562 133.96875 164.3125 C 133.800781 164.183594 133.625 164.074219 133.441406 163.984375 C 133.332031 163.9375 133.222656 163.898438 133.109375 163.863281 L 130.714844 163.757812 L 128.191406 163.757812 C 127.652344 163.800781 126.765625 163.925781 125.878906 164.335938 C 125.542969 164.480469 125.230469 164.660156 124.933594 164.878906 C 124.796875 164.984375 124.671875 165.089844 124.175781 165.566406 C 123.339844 166.375 123.410156 166.359375 123.144531 166.574219 C 122.78125 166.863281 122.398438 167.113281 121.988281 167.328125 C 121.625 167.527344 121.292969 167.675781 121.050781 167.777344 C 120.996094 167.800781 120.953125 167.839844 120.929688 167.894531 C 120.898438 167.960938 120.898438 168.027344 120.929688 168.09375 C 120.960938 168.171875 121 168.25 121.042969 168.324219 C 121.105469 168.433594 121.144531 168.464844 121.144531 168.515625 C 121.144531 168.570312 120.992188 168.738281 120.941406 168.773438 C 120.683594 168.941406 120.46875 169.183594 120.203125 169.328125 C 119.816406 169.546875 119.464844 169.808594 119.144531 170.113281 C 119.121094 170.128906 119.042969 170.199219 119.050781 170.277344 C 119.054688 170.355469 119.082031 170.359375 119.144531 170.433594 L 119.257812 170.542969 C 119.3125 170.589844 119.347656 170.644531 119.363281 170.714844 C 119.367188 170.78125 119.359375 170.84375 119.335938 170.90625 C 119.320312 170.964844 119.296875 171.023438 119.261719 171.078125 C 119.160156 171.238281 119.011719 171.449219 118.828125 171.679688 C 118.570312 172.003906 118.285156 172.308594 117.972656 172.585938 C 117.75 172.78125 117.511719 172.960938 117.261719 173.125 C 116.5 173.664062 116.34375 173.652344 115.988281 174.015625 C 115.789062 174.21875 115.613281 174.445312 115.46875 174.6875 C 115.269531 175 115.210938 175.164062 114.941406 175.699219 C 114.761719 176.039062 114.664062 176.234375 114.527344 176.464844 C 114.203125 177 113.8125 177.488281 113.363281 177.925781 C 113.164062 178.113281 113.203125 178.054688 112.738281 178.46875 C 112.628906 178.570312 112.359375 178.804688 111.890625 179.253906 C 111.421875 179.703125 110.960938 180.132812 110.308594 180.816406 C 109.65625 181.496094 109.738281 181.457031 109.46875 181.703125 C 109.195312 181.949219 108.582031 182.480469 108.105469 182.925781 C 107.929688 183.085938 107.789062 183.273438 107.6875 183.488281 C 107.640625 183.59375 107.601562 183.703125 107.574219 183.8125 L 107.574219 184.710938 C 107.503906 184.871094 107.402344 185.097656 107.273438 185.371094 C 107.210938 185.5 107.066406 185.808594 106.945312 186.042969 C 106.726562 186.457031 106.554688 186.699219 106.320312 187.054688 C 105.777344 187.871094 105.503906 188.28125 105.265625 188.835938 C 105.195312 188.992188 105.078125 189.347656 104.835938 190.066406 C 104.597656 190.78125 104.558594 190.945312 104.429688 191.28125 C 104.382812 191.40625 104.234375 191.773438 103.796875 192.621094 C 103.308594 193.5625 103.21875 193.621094 102.738281 194.53125 C 102.257812 195.441406 102.503906 195.089844 102 196.085938 C 102 196.085938 101.652344 196.777344 101.582031 197.410156 C 101.566406 197.539062 101.566406 197.667969 101.589844 197.796875 C 101.640625 198.089844 101.765625 198.160156 101.796875 198.398438 C 101.828125 198.640625 101.761719 198.722656 101.699219 198.882812 C 101.601562 199.132812 101.453125 199.351562 101.261719 199.539062 C 100.804688 199.984375 100.429688 200.503906 100.011719 200.984375 C 99.59375 201.46875 99.761719 201.335938 99.046875 202.222656 C 98.332031 203.105469 98.222656 203.179688 97.679688 203.890625 C 97.558594 204.054688 97.683594 203.890625 96.964844 204.878906 C 96.71875 205.222656 96.410156 205.644531 96.195312 206.15625 C 96.117188 206.371094 96.066406 206.589844 96.042969 206.816406 C 96.019531 207.042969 96.007812 207.152344 96.070312 207.214844 C 96.210938 207.347656 96.601562 207.136719 96.828125 206.960938 C 97.050781 206.78125 97.097656 206.707031 97.332031 206.4375 C 97.46875 206.277344 97.652344 206.171875 97.804688 206.03125 C 97.820312 206.015625 97.867188 205.96875 97.890625 205.984375 C 97.917969 206 97.90625 206.089844 97.902344 206.121094 C 97.886719 206.207031 97.855469 206.289062 97.808594 206.363281 C 97.773438 206.4375 97.742188 206.507812 97.699219 206.578125 C 97.589844 206.765625 97.589844 206.800781 97.292969 207.339844 C 96.953125 207.964844 96.882812 208.046875 96.820312 208.300781 C 96.78125 208.445312 96.765625 208.59375 96.769531 208.746094 C 96.773438 208.957031 96.78125 209.121094 96.863281 209.203125 C 97.097656 209.449219 97.90625 208.949219 98.230469 208.75 C 98.554688 208.550781 98.835938 208.324219 99.277344 207.980469 C 99.714844 207.632812 99.324219 207.960938 101.46875 206.324219 L 102.332031 205.664062 L 103.097656 205.664062 C 103.503906 205.46875 103.839844 205.273438 104.089844 205.121094 C 104.558594 204.832031 104.910156 204.578125 105.1875 204.371094 C 105.464844 204.167969 105.574219 204.078125 105.699219 203.980469 C 105.753906 203.933594 105.816406 203.910156 105.890625 203.917969 C 105.949219 203.929688 105.996094 203.960938 106.03125 204.007812 C 106.097656 204.078125 106.140625 204.160156 106.152344 204.257812 C 106.140625 204.363281 106.125 204.523438 106.105469 204.71875 C 105.992188 205.816406 105.945312 206.316406 105.886719 206.921875 C 105.78125 207.917969 105.785156 207.769531 105.671875 208.875 C 105.566406 209.890625 105.574219 209.917969 105.457031 211.09375 C 105.328125 212.367188 105.3125 212.386719 105.21875 213.382812 C 105.148438 214.078125 105.097656 214.660156 105.046875 215.441406 C 104.984375 216.324219 105 216.378906 104.941406 217.171875 C 104.882812 217.96875 104.859375 218.109375 104.746094 219.304688 C 104.644531 220.402344 104.664062 220.292969 104.527344 221.875 C 104.394531 223.457031 104.371094 223.519531 104.308594 224.304688 C 104.230469 225.367188 104.195312 226.199219 104.171875 226.683594 C 104.136719 227.496094 104.132812 227.769531 104.101562 228.835938 C 104.03125 230.929688 103.996094 231.984375 103.90625 232.972656 C 103.78125 234.433594 103.714844 235.160156 103.589844 235.554688 C 103.382812 236.234375 103.238281 236.929688 103.160156 237.636719 C 103.148438 237.742188 103.144531 237.851562 103.148438 237.957031 C 103.144531 238.214844 103.15625 238.28125 103.203125 238.339844 C 103.25 238.394531 103.285156 238.445312 103.394531 238.433594 C 103.503906 238.421875 103.574219 238.332031 103.605469 238.296875 C 103.636719 238.261719 103.675781 238.101562 103.714844 237.851562 C 103.773438 237.496094 103.820312 237.355469 103.835938 237.3125 C 103.886719 237.175781 103.949219 237 104.03125 237 C 104.117188 237 104.273438 237.429688 104.277344 237.449219 C 104.285156 237.632812 104.289062 237.785156 104.300781 237.898438 C 104.304688 238.03125 104.320312 238.160156 104.347656 238.292969 C 104.378906 238.445312 104.417969 238.636719 104.476562 238.640625 C 104.535156 238.648438 104.554688 238.515625 104.664062 238.160156 C 104.773438 237.804688 104.816406 237.691406 104.875 237.542969 C 104.992188 237.238281 105.046875 237.230469 105.164062 236.953125 C 105.285156 236.675781 105.265625 236.621094 105.375 236.238281 C 105.484375 235.855469 105.5 235.894531 105.699219 235.277344 C 105.898438 234.660156 105.886719 234.613281 106.015625 234.285156 C 106.113281 234.035156 106.230469 233.796875 106.371094 233.570312 C 106.605469 233.191406 106.730469 233.144531 107.066406 232.710938 C 107.285156 232.441406 107.472656 232.152344 107.628906 231.84375 C 107.730469 231.648438 107.769531 231.515625 108.007812 230.605469 C 108.214844 229.789062 108.320312 229.371094 108.414062 228.941406 C 108.507812 228.511719 108.585938 228.09375 108.636719 227.8125 C 108.816406 226.832031 108.820312 226.613281 108.957031 225.890625 C 109.054688 225.351562 109.148438 224.984375 109.296875 224.367188 C 109.382812 224.003906 109.535156 223.382812 109.890625 222.144531 C 110.246094 220.910156 110.3125 220.726562 110.738281 219.257812 C 111.035156 218.226562 111.179688 217.707031 111.269531 217.328125 C 111.5625 216.105469 111.492188 215.949219 111.796875 214.503906 C 111.949219 213.773438 112.089844 213.234375 112.351562 212.21875 C 112.507812 211.617188 112.511719 211.617188 112.882812 210.21875 C 113.320312 208.554688 113.398438 208.238281 113.441406 208.046875 C 113.515625 207.722656 113.617188 207.210938 113.824219 206.183594 C 114.09375 204.84375 114.183594 204.355469 114.433594 203.644531 C 114.546875 203.316406 114.679688 202.996094 114.824219 202.683594 L 115.144531 202.683594 C 115.21875 202.746094 115.296875 202.800781 115.375 202.859375 L 115.984375 202.875 L 116.105469 203.4375 C 116.097656 203.578125 116.097656 203.722656 116.097656 203.863281 C 116.171875 204.039062 116.28125 204.1875 116.421875 204.308594 C 116.542969 204.414062 116.851562 204.640625 117.242188 204.652344 C 117.398438 204.652344 117.519531 204.617188 117.632812 204.707031 C 117.730469 204.777344 117.777344 204.867188 117.78125 204.984375 C 117.78125 205.054688 117.75 205.078125 117.679688 205.214844 C 117.679688 205.214844 117.65625 205.269531 117.585938 205.460938 C 117.421875 205.921875 117.460938 206.792969 117.460938 206.792969 C 117.472656 206.992188 117.363281 207.503906 117.144531 208.523438 C 117.101562 208.714844 117.003906 209.167969 116.714844 210.335938 C 116.429688 211.503906 116.304688 212 116.113281 212.691406 C 116.066406 212.847656 115.871094 213.582031 115.566406 214.5625 C 115.332031 215.320312 115.289062 215.410156 114.832031 216.820312 C 114.496094 217.859375 114.328125 218.378906 114.167969 218.910156 C 113.949219 219.65625 113.800781 220.199219 113.566406 221.082031 C 113.253906 222.25 113.097656 222.832031 112.945312 223.503906 C 112.757812 224.296875 112.523438 225.414062 112.308594 226.738281 C 112.109375 227.957031 112.015625 228.832031 111.988281 229.074219 C 111.941406 229.554688 111.90625 229.96875 111.886719 230.28125 C 111.78125 231.730469 111.78125 233.175781 111.886719 234.621094 C 111.980469 235.894531 112.136719 236.871094 112.210938 237.300781 C 112.246094 237.53125 112.414062 238.492188 112.738281 239.742188 C 112.863281 240.222656 113.042969 240.941406 113.363281 241.863281 C 113.503906 242.277344 113.78125 243.046875 114.203125 243.988281 C 114.367188 244.347656 114.683594 245.035156 115.148438 245.878906 C 115.273438 246.101562 115.640625 246.761719 116.304688 247.777344 C 117.175781 249.117188 117.613281 249.789062 118.300781 250.578125 C 119.53125 251.972656 120.4375 252.511719 120.71875 252.671875 C 121.027344 252.84375 121.34375 252.992188 121.671875 253.121094 C 122.28125 253.363281 122.910156 253.511719 123.5625 253.578125 L 139.957031 253.578125 Z M 139.957031 253.574219 " fill-opacity="1" fill-rule="nonzero"/></g><g fill="#000000" fill-opacity="1"><g transform="translate(29.049125, 299.552693)"><g><path d="M 124.734375 0 C 107.585938 0 91.941406 -2.945312 77.796875 -8.84375 C 63.648438 -14.738281 51.488281 -22.828125 41.3125 -33.109375 C 31.132812 -43.398438 23.3125 -55.347656 17.84375 -68.953125 C 12.375 -82.566406 9.640625 -97.085938 9.640625 -112.515625 C 9.640625 -127.953125 12.375 -142.472656 17.84375 -156.078125 C 23.3125 -169.691406 31.132812 -181.640625 41.3125 -191.921875 C 51.488281 -202.210938 63.648438 -210.300781 77.796875 -216.1875 C 91.941406 -222.082031 107.585938 -225.03125 124.734375 -225.03125 L 153.671875 -225.03125 L 153.671875 -197.71875 L 125.703125 -197.71875 C 113.484375 -197.71875 102.226562 -195.570312 91.9375 -191.28125 C 81.65625 -187 72.707031 -181 65.09375 -173.28125 C 57.488281 -165.5625 51.539062 -156.554688 47.25 -146.265625 C 42.96875 -135.984375 40.828125 -124.734375 40.828125 -112.515625 C 40.828125 -100.515625 42.96875 -89.316406 47.25 -78.921875 C 51.539062 -68.523438 57.488281 -59.46875 65.09375 -51.75 C 72.707031 -44.039062 81.65625 -38.039062 91.9375 -33.75 C 102.226562 -29.46875 113.484375 -27.328125 125.703125 -27.328125 L 153.671875 -27.328125 L 153.671875 0 Z M 124.734375 0 "/></g></g></g></svg>