<svg xmlns="http://www.w3.org/2000/svg" xmlns:xlink="http://www.w3.org/1999/xlink" width="500" zoomAndPan="magnify" viewBox="0 0 375 374.999991" height="500" preserveAspectRatio="xMidYMid meet" version="1.0"><defs><g/><clipPath id="182c6b3b61"><path d="M 187.5 0 C 83.945312 0 0 83.945312 0 187.5 C 0 291.054688 83.945312 375 187.5 375 C 291.054688 375 375 291.054688 375 187.5 C 375 83.945312 291.054688 0 187.5 0 Z M 187.5 0 " clip-rule="nonzero"/></clipPath><clipPath id="e5839adbf1"><path d="M 142 121.621094 L 285.671875 121.621094 L 285.671875 253.621094 L 142 253.621094 Z M 142 121.621094 " clip-rule="nonzero"/></clipPath><clipPath id="9c5c9faa05"><path d="M 89.171875 163 L 163 163 L 163 253.621094 L 89.171875 253.621094 Z M 89.171875 163 " clip-rule="nonzero"/></clipPath></defs><g clip-path="url(#182c6b3b61)"><rect x="-37.5" width="450" fill="#ffe135" y="-37.499999" height="449.999989" fill-opacity="1"/></g><g fill="#000000" fill-opacity="1"><g transform="translate(352.734356, 75.43634)"><g><path d="M -124.734375 0 C -107.585938 0 -91.941406 2.945312 -77.796875 8.84375 C -63.648438 14.738281 -51.488281 22.828125 -41.3125 33.109375 C -31.132812 43.398438 -23.3125 55.347656 -17.84375 68.953125 C -12.375 82.566406 -9.640625 97.085938 -9.640625 112.515625 C -9.640625 127.953125 -12.375 142.472656 -17.84375 156.078125 C -23.3125 169.691406 -31.132812 181.640625 -41.3125 191.921875 C -51.488281 202.210938 -63.648438 210.300781 -77.796875 216.1875 C -91.941406 222.082031 -107.585938 225.03125 -124.734375 225.03125 L -153.671875 225.03125 L -153.671875 197.71875 L -125.703125 197.71875 C -113.484375 197.71875 -102.226562 195.570312 -91.9375 191.28125 C -81.65625 187 -72.707031 181 -65.09375 173.28125 C -57.488281 165.5625 -51.539062 156.554688 -47.25 146.265625 C -42.96875 135.984375 -40.828125 124.734375 -40.828125 112.515625 C -40.828125 100.515625 -42.96875 89.316406 -47.25 78.921875 C -51.539062 68.523438 -57.488281 59.46875 -65.09375 51.75 C -72.707031 44.039062 -81.65625 38.039062 -91.9375 33.75 C -102.226562 29.46875 -113.484375 27.328125 -125.703125 27.328125 L -153.671875 27.328125 L -153.671875 0 Z M -124.734375 0 "/></g></g></g><g clip-path="url(#e5839adbf1)"><path fill="#000000" d="M 179.390625 241.792969 C 179.457031 240.476562 179.519531 239.160156 179.585938 237.847656 C 179.375 234.003906 179.105469 230.789062 178.882812 228.417969 C 178.371094 222.894531 178.035156 219.433594 177.089844 214.859375 C 176.625 212.632812 176.171875 210.433594 175.222656 207.539062 C 174.941406 206.691406 173.90625 203.625 170.613281 197.085938 C 167.804688 191.503906 167.945312 192.53125 166.246094 188.859375 C 166.246094 188.859375 164.324219 184.71875 162.148438 177.203125 C 161.832031 176.148438 161.625 175.074219 161.53125 173.976562 C 161.460938 173.101562 161.460938 172.222656 161.53125 171.34375 C 162.070312 169.632812 162.5 167.898438 162.820312 166.136719 C 163.265625 163.714844 163.484375 162.507812 163.347656 160.875 C 163.0625 157.539062 161.46875 154.695312 160.148438 154.382812 C 159.648438 154.269531 159.144531 154.25 158.640625 154.328125 C 158.355469 154.386719 158.121094 154.472656 157.664062 154.644531 C 157.203125 154.816406 156.734375 155.011719 156.453125 155.136719 C 156.25 155.230469 156.039062 155.289062 155.820312 155.3125 C 155.546875 155.347656 155.277344 155.328125 155.011719 155.261719 C 153.929688 155.019531 154.160156 155.210938 152.796875 154.847656 C 151.648438 154.542969 151.449219 154.398438 148.234375 153.195312 C 147.726562 153.011719 147.234375 152.789062 146.765625 152.523438 C 146.5625 152.402344 145.988281 152.074219 145.480469 151.632812 C 144.511719 150.789062 144.046875 149.773438 143.738281 149.074219 C 143.195312 147.835938 142.914062 146.539062 142.898438 145.183594 C 142.839844 144.917969 142.75 144.5 142.613281 143.996094 C 142.355469 143.054688 142.207031 142.8125 142.109375 142.136719 C 142.03125 141.609375 141.96875 141.171875 142.15625 140.683594 C 142.292969 140.324219 142.496094 140.09375 142.683594 139.886719 C 142.980469 139.546875 143.332031 139.273438 143.738281 139.070312 L 145.179688 138.285156 C 146.484375 137.566406 146.589844 137.488281 147.382812 137.0625 C 148.0625 136.703125 148.859375 136.285156 149.46875 135.96875 C 150.546875 135.410156 150.785156 135.292969 151.179688 134.984375 C 151.648438 134.613281 152.058594 134.1875 152.414062 133.703125 C 152.664062 133.363281 152.925781 133 153.113281 132.453125 C 153.238281 132.105469 153.308594 131.746094 153.328125 131.378906 C 153.339844 130.808594 153.34375 130.238281 153.351562 129.660156 C 153.476562 129.285156 153.644531 128.933594 153.855469 128.597656 C 154.066406 128.28125 154.308594 127.992188 154.582031 127.730469 C 154.996094 127.335938 155.253906 127.226562 156.160156 126.699219 C 156.441406 126.53125 155.835938 126.882812 157.980469 125.582031 C 158.796875 125.085938 159.203125 124.839844 159.300781 124.789062 C 160.519531 124.058594 161.789062 123.425781 163.105469 122.890625 C 163.472656 122.746094 163.90625 122.578125 164.507812 122.390625 C 165.191406 122.175781 166.441406 121.792969 168.089844 121.679688 C 168.898438 121.617188 169.710938 121.628906 170.519531 121.714844 C 171.011719 121.730469 171.496094 121.785156 171.980469 121.882812 C 172.367188 121.960938 172.792969 122.050781 173.328125 122.285156 C 173.609375 122.410156 173.878906 122.558594 174.136719 122.730469 L 175.195312 123.410156 L 176.757812 124.425781 L 177.9375 125.191406 C 179.566406 126.253906 181.011719 127.488281 181.546875 127.949219 C 182.230469 128.535156 182.925781 129.136719 183.78125 130.039062 C 184.636719 130.9375 185.113281 131.546875 185.289062 131.769531 C 185.878906 132.519531 186.28125 133.121094 186.578125 133.570312 C 187.175781 134.46875 187.574219 135.167969 187.757812 135.484375 C 188.613281 136.964844 189.355469 138.164062 190.839844 140.566406 C 191.164062 141.089844 191.007812 140.828125 193.0625 144.058594 C 195.574219 148.003906 195.917969 148.5625 196.808594 149.878906 C 197.296875 150.597656 197.789062 151.304688 198.78125 152.722656 C 199.882812 154.304688 200.472656 155.144531 201.097656 156.015625 C 203.140625 158.847656 204.890625 161.015625 206.320312 162.773438 C 207.402344 164.113281 208.484375 165.402344 208.609375 165.554688 L 209.617188 166.742188 C 211.503906 168.960938 212.460938 170.128906 214.15625 172.128906 C 215.949219 174.238281 217.324219 175.808594 219.582031 178.410156 C 220.722656 179.71875 221.683594 180.820312 222.382812 181.617188 L 229.136719 189.382812 C 230.476562 190.933594 231.832031 192.484375 233.195312 194.039062 C 234.324219 195.324219 235.449219 196.597656 236.574219 197.859375 L 239.417969 201.054688 L 242.375 204.566406 L 244.824219 207.707031 C 245.386719 208.507812 245.953125 209.304688 246.519531 210.105469 C 247.160156 211.164062 247.804688 212.21875 248.453125 213.277344 L 250.519531 217.234375 C 250.855469 218.050781 251.191406 218.871094 251.53125 219.6875 C 251.851562 220.507812 252.164062 221.398438 252.457031 222.355469 C 252.75 223.3125 252.953125 224.078125 253.140625 224.875 C 253.328125 225.667969 253.414062 226.328125 253.554688 227.058594 C 253.871094 228.847656 253.96875 230.652344 253.847656 232.46875 C 253.824219 232.851562 253.789062 233.265625 253.726562 233.710938 C 253.664062 234.15625 253.609375 234.417969 253.542969 234.730469 L 253.542969 236.59375 C 253.601562 236.941406 253.679688 237.28125 253.773438 237.617188 C 253.910156 238.085938 254.058594 238.605469 254.390625 239.1875 C 254.734375 239.796875 255.183594 240.320312 255.734375 240.757812 C 255.988281 240.957031 256.367188 241.253906 256.949219 241.453125 C 257.269531 241.566406 257.597656 241.628906 257.9375 241.636719 C 258.289062 241.636719 258.628906 241.582031 258.960938 241.476562 C 259.488281 241.308594 259.835938 241.070312 260.253906 240.789062 C 260.738281 240.457031 261.1875 240.082031 261.605469 239.664062 C 262.472656 238.96875 263.261719 238.191406 263.964844 237.328125 C 264.496094 236.6875 264.972656 236.003906 265.390625 235.28125 C 265.707031 234.730469 265.988281 234.160156 266.230469 233.574219 C 266.628906 232.601562 266.929688 231.601562 267.128906 230.570312 C 267.503906 228.632812 267.441406 227.097656 267.378906 225.867188 C 267.339844 225.03125 267.269531 223.785156 266.894531 222.210938 C 266.699219 221.40625 266.523438 220.675781 266.121094 219.832031 C 265.777344 219.097656 265.066406 217.875 263.644531 216.734375 C 262.910156 216.242188 261.875 215.535156 260.671875 214.632812 C 259.285156 213.601562 258.5 213.015625 257.578125 212.140625 C 256.535156 211.152344 255.597656 210.066406 254.769531 208.886719 C 254.414062 208.371094 254.15625 207.808594 253.992188 207.207031 C 253.847656 206.660156 253.777344 206.105469 253.785156 205.539062 C 253.777344 204.992188 253.832031 204.453125 253.941406 203.917969 C 253.984375 203.640625 254.054688 203.371094 254.152344 203.109375 C 254.359375 202.597656 254.628906 202.261719 254.839844 202.007812 C 255.054688 201.726562 255.304688 201.476562 255.589844 201.261719 C 256.027344 200.933594 256.414062 200.792969 256.800781 200.660156 C 257.402344 200.457031 258.015625 200.335938 258.648438 200.300781 C 258.953125 200.273438 259.386719 200.246094 259.898438 200.214844 C 260.617188 200.179688 260.988281 200.160156 261.457031 200.164062 C 261.929688 200.167969 262.382812 200.210938 262.863281 200.257812 C 263.796875 200.351562 264.527344 200.472656 264.875 200.535156 C 267.121094 200.941406 269.277344 201.640625 271.335938 202.636719 C 272.4375 203.148438 273.210938 203.585938 274.019531 204.054688 C 275.148438 204.691406 275.910156 205.132812 276.871094 205.847656 C 277.316406 206.183594 277.707031 206.503906 278.128906 206.847656 C 278.871094 207.460938 279.292969 207.8125 279.796875 208.289062 C 280.472656 208.933594 281.097656 209.628906 281.671875 210.367188 C 282.1875 211.042969 282.65625 211.753906 283.082031 212.492188 C 283.691406 213.558594 284.203125 214.671875 284.617188 215.832031 C 284.96875 216.816406 285.230469 217.824219 285.402344 218.859375 C 285.535156 219.65625 285.605469 220.457031 285.617188 221.265625 L 285.628906 224.84375 C 285.601562 225.503906 285.542969 226.339844 285.433594 227.304688 C 285.304688 228.414062 285.117188 229.511719 284.867188 230.601562 C 284.550781 231.957031 284.132812 233.28125 283.609375 234.570312 C 283.125 235.730469 282.554688 236.851562 281.898438 237.925781 C 280.933594 239.527344 280.035156 240.605469 279.382812 241.378906 C 278.464844 242.46875 277.480469 243.492188 276.433594 244.457031 C 275.429688 245.386719 273.808594 246.878906 271.410156 248.355469 C 270.230469 249.082031 269.003906 249.71875 267.730469 250.265625 C 265.398438 251.296875 262.984375 252.058594 260.488281 252.550781 L 255.375 253.242188 L 252.679688 253.347656 C 248.101562 253.335938 244.417969 253.34375 241.835938 253.347656 C 238.789062 253.351562 236.953125 253.363281 233.550781 253.359375 L 228.460938 253.347656 L 222.117188 253.359375 L 215.019531 253.367188 L 210.539062 253.347656 C 210.585938 253.058594 210.589844 252.769531 210.550781 252.480469 C 210.496094 252.105469 210.386719 251.851562 210.179688 251.375 C 210.027344 251.019531 209.855469 250.671875 209.664062 250.335938 C 209.640625 250.195312 209.640625 250.054688 209.664062 249.914062 C 209.707031 249.644531 209.820312 249.410156 210.007812 249.210938 C 210.199219 248.945312 210.367188 248.667969 210.511719 248.375 C 210.6875 248.023438 210.8125 247.695312 211.007812 247.023438 C 211.207031 246.355469 211.359375 245.824219 211.527344 244.988281 C 211.664062 244.285156 211.765625 243.578125 211.828125 242.867188 L 211.828125 239.480469 C 211.777344 239.265625 211.703125 238.941406 211.625 238.546875 C 211.457031 237.738281 211.40625 237.28125 211.339844 236.894531 C 211.199219 236.0625 210.976562 235.476562 210.660156 234.632812 C 210.34375 233.78125 209.957031 232.960938 209.507812 232.171875 C 208.960938 231.230469 208.324219 230.359375 207.59375 229.554688 C 206.921875 228.789062 206.261719 228.183594 205.199219 227.1875 L 204.4375 226.496094 L 204.4375 224.257812 C 204.566406 223.671875 204.742188 223.097656 204.964844 222.539062 C 205.183594 221.972656 205.398438 221.425781 205.820312 220.789062 C 206.105469 220.359375 206.238281 220.273438 206.628906 219.664062 C 206.839844 219.355469 207.03125 219.03125 207.199219 218.695312 C 207.449219 218.175781 207.640625 217.636719 207.773438 217.074219 C 208.003906 216.308594 208.160156 215.644531 208.257812 215.132812 C 208.410156 214.363281 208.488281 213.75 208.539062 213.277344 C 208.59375 212.808594 208.632812 212.402344 208.660156 212.101562 C 208.664062 211.054688 208.671875 210.007812 208.679688 208.957031 C 208.570312 208.53125 208.457031 208.171875 208.367188 207.90625 C 208.277344 207.640625 208.222656 207.507812 208.085938 207.367188 C 207.941406 207.222656 207.769531 207.132812 207.570312 207.101562 C 207.496094 207.089844 207.296875 207.074219 206.910156 207.285156 C 206.613281 207.453125 206.429688 207.632812 206.230469 207.824219 C 205.496094 208.523438 205.515625 208.425781 205.128906 208.839844 C 204.921875 209.058594 204.847656 209.15625 204.398438 209.722656 C 203.449219 210.917969 203.449219 210.871094 203.050781 211.398438 C 202.65625 211.925781 202.34375 212.335938 201.996094 212.894531 C 201.652344 213.457031 201.371094 214.070312 200.875 215.171875 C 200.378906 216.277344 200.101562 216.890625 199.941406 217.457031 C 199.835938 217.816406 199.769531 218.117188 199.570312 218.550781 C 199.359375 219.003906 199.09375 219.421875 198.769531 219.800781 C 198.710938 219.839844 198.644531 219.863281 198.574219 219.875 C 198.359375 219.894531 198.207031 219.722656 198.1875 219.695312 C 198.054688 219.605469 197.945312 219.496094 197.851562 219.367188 C 197.785156 219.265625 197.726562 219.136719 197.617188 218.878906 C 197.570312 218.757812 197.496094 218.597656 197.433594 218.445312 C 197.199219 217.957031 196.875 217.304688 196.457031 216.535156 C 196.128906 215.925781 195.613281 214.972656 194.953125 213.996094 C 194.296875 213.015625 193.632812 212.234375 192.390625 210.824219 C 191.769531 210.109375 190.929688 209.179688 189.894531 208.109375 C 189.765625 207.953125 189.601562 207.839844 189.410156 207.769531 C 189 207.632812 188.652344 207.800781 188.5 207.875 C 188.242188 208 188.035156 208.183594 187.875 208.425781 C 187.804688 208.707031 187.734375 208.996094 187.660156 209.277344 C 187.625 209.640625 187.589844 210.007812 187.554688 210.367188 C 187.558594 210.597656 187.574219 210.921875 187.613281 211.304688 C 187.660156 211.808594 187.71875 212.195312 187.796875 212.671875 C 188.015625 213.953125 188.121094 214.597656 188.277344 215.195312 C 188.40625 215.714844 188.566406 216.222656 188.761719 216.722656 C 188.933594 217.152344 189.089844 217.460938 189.398438 218.0625 C 189.488281 218.246094 189.847656 218.953125 190.441406 219.996094 C 191.039062 221.035156 190.882812 220.71875 191.488281 221.773438 C 191.800781 222.335938 192.144531 222.949219 192.511719 223.367188 C 192.652344 223.527344 192.78125 223.695312 192.929688 223.851562 C 193.074219 224.011719 193.199219 224.136719 193.289062 224.289062 C 193.378906 224.449219 193.441406 224.617188 193.476562 224.800781 L 193.476562 226.125 C 193.410156 226.277344 193.320312 226.453125 193.210938 226.652344 C 193.078125 226.882812 192.933594 227.105469 192.769531 227.3125 C 192.648438 227.472656 192.519531 227.625 192.378906 227.769531 C 192.378906 227.769531 192.25 227.914062 191.589844 228.699219 C 190.933594 229.484375 190.347656 230.40625 189.828125 231.230469 C 189.386719 231.921875 189.078125 232.453125 188.890625 232.777344 C 188.550781 233.375 188.375 233.683594 188.167969 234.136719 C 187.90625 234.703125 187.695312 235.285156 187.523438 235.882812 C 187.292969 236.660156 187.132812 237.453125 187.039062 238.261719 C 186.960938 238.898438 186.953125 239.339844 186.9375 240.191406 C 186.917969 241.453125 186.90625 242.085938 187.015625 242.867188 C 187.164062 243.878906 187.414062 244.636719 187.625 245.242188 C 187.828125 245.859375 188.074219 246.460938 188.355469 247.042969 C 188.8125 247.984375 189.363281 248.859375 190.007812 249.679688 L 189.992188 250.402344 C 189.832031 250.496094 189.679688 250.601562 189.535156 250.71875 C 189.230469 250.96875 188.957031 251.246094 188.714844 251.558594 C 188.441406 251.902344 188.222656 252.1875 188.0625 252.628906 C 187.972656 252.875 187.917969 253.128906 187.894531 253.390625 L 186.855469 253.390625 C 186.375 253.390625 186.03125 253.394531 185.9375 253.402344 C 183.78125 253.425781 181.96875 253.351562 181.96875 253.351562 C 180.894531 253.304688 180.804688 253.269531 179.828125 253.25 C 178.851562 253.226562 178.71875 253.25 177.90625 253.242188 C 176.445312 253.214844 174.996094 253.078125 173.558594 252.824219 C 172.960938 252.71875 172.433594 252.605469 171.921875 252.1875 C 171.746094 252.039062 171.265625 251.632812 171.0625 250.925781 C 170.925781 250.449219 170.988281 250.070312 171.082031 249.472656 C 171.210938 248.734375 171.449219 248.03125 171.800781 247.371094 C 172.03125 246.925781 172.304688 246.511719 172.621094 246.128906 C 172.984375 245.695312 173.398438 245.324219 173.871094 245.011719 C 174.5625 244.566406 175.316406 244.304688 176.136719 244.226562 L 177.539062 244.164062 C 177.753906 244.136719 177.953125 244.074219 178.140625 243.976562 C 178.390625 243.847656 178.597656 243.667969 178.769531 243.441406 C 179.253906 242.839844 179.363281 242.097656 179.390625 241.792969 Z M 179.390625 241.792969 " fill-opacity="1" fill-rule="nonzero"/></g><g clip-path="url(#9c5c9faa05)"><path fill="#000000" d="M 133.164062 253.574219 C 135.464844 253.605469 137.8125 253.613281 140.203125 253.59375 C 142.484375 253.578125 144.726562 253.535156 146.933594 253.46875 C 147.417969 253.535156 147.894531 253.488281 148.359375 253.328125 C 148.503906 253.273438 148.648438 253.210938 148.785156 253.140625 C 148.875 253.035156 148.9375 252.917969 148.980469 252.789062 C 149.070312 252.515625 149.027344 252.269531 148.964844 252.003906 C 148.839844 251.523438 148.664062 251.0625 148.4375 250.621094 C 148.269531 250.289062 148.058594 249.984375 147.808594 249.710938 C 147.476562 249.332031 147.085938 249.019531 146.640625 248.777344 C 146.0625 248.445312 145.445312 248.222656 144.785156 248.117188 L 139.242188 248.25 L 138.574219 248.234375 L 138.574219 247.667969 C 138.714844 247.585938 138.921875 247.457031 139.164062 247.289062 C 139.402344 247.125 139.613281 246.933594 140.199219 246.386719 C 140.78125 245.835938 141.121094 245.519531 141.320312 245.300781 C 141.519531 245.082031 141.664062 244.914062 141.96875 244.523438 C 142.464844 243.886719 142.976562 243.226562 143.523438 242.265625 C 143.964844 241.488281 144.34375 240.679688 144.65625 239.839844 C 144.933594 239.128906 145.148438 238.402344 145.304688 237.652344 C 145.402344 237.167969 145.460938 236.742188 145.496094 236.429688 L 145.496094 233.707031 C 145.445312 233.421875 145.371094 233.0625 145.257812 232.660156 C 145.152344 232.273438 145.027344 231.898438 144.882812 231.527344 C 144.714844 231.089844 144.523438 230.667969 144.300781 230.253906 C 144.117188 229.917969 143.914062 229.589844 143.691406 229.277344 C 143.496094 229.007812 143.289062 228.753906 143.070312 228.507812 L 143.277344 228.507812 L 143.957031 229.097656 C 144.371094 229.453125 144.433594 229.5 144.566406 229.636719 C 144.808594 229.886719 145.023438 230.152344 145.210938 230.445312 C 145.699219 231.128906 146.007812 231.890625 146.132812 232.726562 C 146.183594 233.015625 146.214844 233.304688 146.226562 233.597656 C 146.269531 234.265625 146.304688 234.941406 146.335938 235.628906 C 146.398438 236.84375 146.433594 238.039062 146.449219 239.207031 C 146.542969 240.175781 146.65625 241.007812 146.765625 241.671875 C 146.84375 242.160156 146.964844 242.898438 147.1875 243.867188 C 147.324219 244.453125 147.476562 245.097656 147.742188 245.914062 C 148.007812 246.730469 148.097656 246.773438 148.445312 247.765625 C 148.609375 248.222656 148.625 248.328125 149.183594 250.175781 C 149.644531 251.699219 149.699219 251.859375 149.851562 252.105469 C 150.347656 252.910156 151.074219 253.335938 151.609375 253.574219 L 154.707031 253.589844 L 155.804688 253.578125 C 156.128906 253.554688 156.4375 253.472656 156.734375 253.332031 C 156.949219 253.226562 157.261719 253.074219 157.53125 252.726562 C 157.722656 252.46875 157.851562 252.183594 157.914062 251.871094 L 157.902344 250.625 C 157.742188 250.234375 157.519531 249.882812 157.230469 249.574219 C 156.847656 249.160156 156.390625 248.863281 155.863281 248.679688 L 154.722656 248.679688 C 154.546875 248.566406 154.390625 248.433594 154.253906 248.273438 C 154.09375 248.085938 153.964844 247.878906 153.867188 247.652344 C 153.601562 247.070312 153.449219 246.484375 153.335938 245.996094 C 153.21875 245.511719 153.109375 245.0625 152.980469 244.359375 C 152.847656 243.65625 152.777344 243.019531 152.761719 242.894531 C 152.761719 242.894531 152.699219 242.316406 152.660156 241.683594 C 152.566406 240.070312 152.707031 238.050781 152.734375 237.691406 C 152.761719 237.328125 152.8125 236.773438 152.902344 236.160156 C 153.050781 235.101562 153.230469 234.328125 153.414062 233.539062 C 153.726562 232.191406 154.042969 231.136719 154.230469 230.539062 C 154.421875 229.941406 154.609375 229.414062 155.03125 228.230469 C 155.75 226.1875 155.792969 226.160156 156.128906 225.160156 C 156.660156 223.558594 156.953125 222.457031 157.019531 222.199219 C 157.234375 221.367188 157.4375 220.589844 157.59375 219.535156 C 157.714844 218.738281 157.773438 218.0625 157.804688 217.566406 C 157.796875 216.804688 157.796875 216.046875 157.792969 215.289062 C 157.757812 215.074219 157.699219 214.753906 157.632812 214.367188 C 157.484375 213.527344 157.414062 213.109375 157.347656 212.816406 C 157.210938 212.179688 157.027344 211.558594 156.800781 210.949219 C 156.460938 210.023438 156.085938 209.320312 155.542969 208.292969 C 155.121094 207.507812 154.878906 207.121094 154.738281 206.429688 C 154.65625 206.03125 154.625 205.628906 154.640625 205.222656 C 154.625 204.910156 154.664062 204.605469 154.75 204.304688 C 154.828125 204.039062 154.910156 203.75 155.160156 203.488281 C 155.347656 203.300781 155.566406 203.175781 155.820312 203.109375 C 156.40625 203.015625 156.890625 202.914062 157.246094 202.824219 C 158.007812 202.640625 158.644531 202.476562 159.394531 202.085938 C 159.683594 201.9375 159.933594 201.808594 160.230469 201.5625 C 160.675781 201.191406 160.929688 200.808594 161.1875 200.414062 C 161.441406 200.023438 161.488281 199.855469 162.046875 198.839844 L 162.441406 198.148438 C 162.488281 197.925781 162.488281 197.703125 162.441406 197.484375 C 162.371094 197.210938 162.246094 197.050781 162.117188 196.851562 C 161.984375 196.652344 161.835938 196.320312 161.621094 195.808594 C 161.328125 195.113281 161.214844 194.515625 161.128906 194.074219 C 161.058594 193.703125 161.011719 193.332031 160.984375 192.953125 C 160.972656 192.238281 160.96875 191.519531 160.960938 190.804688 C 160.910156 190.558594 160.84375 190.316406 160.765625 190.074219 C 160.691406 189.855469 160.335938 188.824219 159.34375 187.625 C 158.960938 187.171875 158.546875 186.753906 158.097656 186.367188 C 157.207031 185.601562 156.246094 184.945312 155.203125 184.40625 C 154.933594 184.277344 154.695312 184.113281 154.484375 183.902344 C 154.230469 183.65625 154.03125 183.371094 153.882812 183.050781 C 153.523438 182.351562 153.222656 181.628906 152.980469 180.882812 C 152.785156 180.28125 152.632812 179.671875 152.515625 179.050781 C 152.410156 178.511719 152.335938 177.96875 152.296875 177.421875 C 152.300781 177.273438 152.261719 177.140625 152.1875 177.015625 C 152.027344 176.777344 151.769531 176.730469 151.660156 176.710938 C 151.546875 176.6875 151.460938 176.683594 151.117188 176.769531 C 150.882812 176.820312 150.65625 176.898438 150.4375 177 C 150.015625 177.199219 149.628906 177.453125 149.277344 177.757812 C 149.042969 177.964844 148.535156 178.441406 147.816406 179.5625 C 147.460938 180.117188 147.195312 180.632812 146.675781 181.640625 C 146.023438 182.902344 146 183.054688 145.605469 183.6875 C 145.0625 184.574219 144.683594 184.988281 144.285156 185.304688 C 144 185.53125 143.953125 185.515625 143.574219 185.792969 C 143.433594 185.898438 142.921875 186.289062 142.207031 187.089844 C 141.410156 187.960938 140.730469 188.914062 140.167969 189.949219 C 139.070312 191.972656 138.484375 194.132812 138.410156 196.429688 C 138.328125 196.734375 138.207031 197.128906 138.046875 197.566406 C 137.824219 198.167969 137.5625 198.753906 137.261719 199.320312 C 136.777344 200.242188 136.328125 200.851562 135.492188 201.980469 C 135.273438 202.273438 134.867188 202.792969 134.058594 203.824219 C 133.152344 204.980469 132.699219 205.554688 132.40625 205.917969 C 131.523438 206.992188 130.820312 207.777344 130.417969 208.222656 C 129.546875 209.179688 129.316406 209.371094 127.320312 211.414062 C 125.328125 213.457031 125.390625 213.425781 123.957031 214.871094 C 122.695312 216.140625 122.613281 216.195312 121.878906 216.964844 C 120.90625 217.984375 120.132812 218.789062 119.207031 219.9375 C 118.582031 220.71875 117.921875 221.539062 117.179688 222.742188 C 116.679688 223.558594 116.234375 224.398438 115.839844 225.273438 C 115.246094 226.613281 114.789062 228.003906 114.472656 229.4375 C 114.164062 230.804688 113.984375 232.183594 113.933594 233.578125 L 113.933594 237.742188 C 113.996094 238.914062 114.085938 239.886719 114.164062 240.601562 C 114.242188 241.3125 114.316406 241.902344 114.410156 242.601562 C 114.503906 243.296875 114.605469 244.035156 114.773438 245.066406 C 114.894531 245.773438 115.003906 246.371094 115.09375 246.808594 C 115.132812 246.910156 115.132812 247.015625 115.097656 247.117188 C 115.058594 247.21875 114.996094 247.300781 114.898438 247.355469 C 114.738281 247.441406 114.523438 247.394531 114.363281 247.242188 C 114.136719 247.128906 113.925781 246.996094 113.726562 246.839844 C 113.375 246.570312 113.074219 246.253906 112.816406 245.894531 C 112.640625 245.65625 112.320312 245.195312 111.808594 244.050781 C 111.453125 243.265625 111.234375 242.652344 110.996094 241.988281 C 110.753906 241.324219 110.546875 240.730469 110.320312 239.96875 C 110.046875 239.003906 109.828125 238.03125 109.664062 237.046875 C 109.511719 236.136719 109.222656 234.339844 109.316406 232.097656 C 109.347656 231.402344 109.410156 230.753906 109.445312 230.433594 C 109.5 229.875 109.59375 228.882812 109.789062 227.867188 C 110.035156 226.570312 110.355469 225.664062 110.804688 224.390625 C 111.046875 223.71875 111.390625 222.875 112.082031 221.195312 C 112.449219 220.28125 112.757812 219.550781 113.105469 218.726562 C 113.824219 217.011719 113.949219 216.738281 114.191406 216.148438 C 114.589844 215.179688 115.144531 213.75 115.734375 211.90625 C 115.902344 211.351562 116.0625 210.738281 116.207031 210.0625 C 116.347656 209.386719 116.425781 208.816406 116.488281 208.261719 C 116.519531 207.96875 116.550781 207.5625 116.570312 207.078125 C 116.59375 206.648438 116.59375 206.222656 116.570312 205.792969 C 116.519531 205.082031 116.371094 204.394531 116.121094 203.730469 C 115.894531 203.109375 115.578125 202.539062 115.183594 202.011719 C 114.890625 201.636719 114.558594 201.304688 114.183594 201.011719 C 114.191406 200.898438 114.171875 200.792969 114.132812 200.6875 C 114.097656 200.59375 114.046875 200.511719 113.980469 200.4375 C 113.800781 200.183594 113.605469 199.949219 113.394531 199.722656 C 113.089844 199.40625 112.929688 199.304688 112.765625 199.253906 C 112.652344 199.214844 112.535156 199.195312 112.414062 199.195312 L 111.921875 199.195312 L 111.453125 199.183594 C 111.390625 199.070312 111.34375 198.96875 111.308594 198.902344 C 111.269531 198.835938 111.246094 198.71875 111.246094 198.691406 C 111.25 198.582031 111.292969 198.492188 111.375 198.421875 L 111.808594 198.121094 C 112.039062 197.964844 112.496094 197.644531 112.882812 197.363281 C 113.269531 197.082031 113.695312 196.730469 114.433594 196.113281 L 115.246094 195.421875 L 115.582031 195.421875 C 115.589844 195.472656 115.609375 195.523438 115.640625 195.566406 C 115.667969 195.609375 115.699219 195.648438 115.734375 195.6875 C 115.820312 195.789062 115.8125 195.808594 115.84375 195.835938 C 115.875 195.859375 115.976562 195.882812 116.15625 195.792969 C 116.339844 195.703125 116.464844 195.507812 116.664062 195.304688 C 117.058594 194.902344 117.429688 194.480469 117.777344 194.035156 C 118.425781 193.183594 118.804688 192.398438 119.09375 191.808594 C 119.496094 190.980469 119.707031 190.351562 120.058594 189.351562 C 120.371094 188.457031 120.558594 187.792969 120.789062 186.988281 C 121.15625 185.714844 121.265625 185.175781 121.316406 184.886719 C 121.421875 184.332031 121.480469 183.867188 121.515625 183.53125 L 121.503906 181.4375 C 121.4375 180.984375 121.335938 180.539062 121.207031 180.097656 C 121.144531 179.894531 121.082031 179.695312 121.015625 179.511719 L 121.015625 179.046875 C 121.132812 178.789062 121.25 178.527344 121.367188 178.269531 L 122.140625 177.125 L 122.726562 176.015625 L 122.882812 175.5 L 122.867188 174.574219 L 123.203125 174.253906 L 123.847656 174.230469 L 124.753906 174.246094 C 125.019531 174.195312 125.28125 174.121094 125.53125 174.015625 C 125.726562 173.929688 125.921875 173.832031 126.105469 173.722656 C 126.335938 173.589844 126.523438 173.464844 126.664062 173.363281 C 126.699219 173.324219 126.742188 173.28125 126.777344 173.234375 C 126.816406 173.1875 126.839844 173.160156 126.871094 173.125 L 126.980469 173.125 C 127.011719 173.167969 127.035156 173.214844 127.058594 173.261719 C 127.113281 173.359375 127.15625 173.460938 127.1875 173.570312 C 127.1875 173.867188 127.191406 174.164062 127.191406 174.460938 C 127.175781 174.527344 127.152344 174.597656 127.128906 174.664062 C 127.085938 174.753906 127.035156 174.84375 126.980469 174.929688 C 126.933594 175.003906 126.894531 175.082031 126.863281 175.164062 C 126.839844 175.222656 126.785156 175.402344 126.867188 175.558594 C 126.898438 175.613281 126.9375 175.660156 126.988281 175.695312 C 127.035156 175.699219 127.085938 175.695312 127.132812 175.6875 C 127.1875 175.679688 127.238281 175.664062 127.285156 175.636719 C 127.382812 175.574219 127.476562 175.503906 127.5625 175.425781 C 127.703125 175.300781 127.828125 175.15625 127.9375 175.003906 C 128.664062 173.992188 128.699219 173.941406 128.773438 173.789062 C 128.894531 173.535156 129 173.277344 129.082031 173.007812 C 129.21875 172.609375 129.324219 172.199219 129.40625 171.785156 C 129.4375 171.445312 129.472656 171.109375 129.503906 170.769531 C 129.503906 170.585938 129.5 170.402344 129.5 170.21875 C 129.5 169.917969 129.464844 169.621094 129.398438 169.328125 C 129.347656 169.101562 129.273438 168.878906 129.179688 168.664062 L 128.757812 167.761719 C 128.683594 167.507812 128.617188 167.25 128.542969 166.988281 C 128.511719 166.617188 128.476562 166.246094 128.4375 165.875 C 128.382812 165.71875 128.316406 165.570312 128.234375 165.429688 C 128.113281 165.222656 127.96875 165.035156 127.800781 164.867188 C 127.609375 164.664062 127.402344 164.476562 127.175781 164.3125 C 127.011719 164.183594 126.835938 164.074219 126.648438 163.984375 C 126.539062 163.9375 126.429688 163.898438 126.320312 163.863281 L 123.921875 163.757812 L 121.398438 163.757812 C 120.863281 163.800781 119.976562 163.925781 119.085938 164.335938 C 118.753906 164.480469 118.4375 164.660156 118.140625 164.878906 C 118.007812 164.984375 117.882812 165.089844 117.386719 165.566406 C 116.550781 166.375 116.617188 166.359375 116.351562 166.574219 C 115.992188 166.863281 115.605469 167.113281 115.199219 167.328125 C 114.832031 167.527344 114.503906 167.675781 114.257812 167.777344 C 114.203125 167.800781 114.164062 167.839844 114.136719 167.894531 C 114.109375 167.960938 114.109375 168.027344 114.136719 168.09375 C 114.167969 168.171875 114.207031 168.25 114.253906 168.324219 C 114.316406 168.433594 114.351562 168.464844 114.351562 168.515625 C 114.351562 168.570312 114.199219 168.738281 114.148438 168.773438 C 113.890625 168.941406 113.679688 169.183594 113.410156 169.328125 C 113.027344 169.546875 112.671875 169.808594 112.351562 170.113281 C 112.332031 170.128906 112.253906 170.199219 112.257812 170.277344 C 112.261719 170.355469 112.289062 170.359375 112.351562 170.433594 L 112.464844 170.542969 C 112.519531 170.589844 112.554688 170.644531 112.570312 170.714844 C 112.578125 170.78125 112.566406 170.84375 112.546875 170.90625 C 112.527344 170.964844 112.503906 171.023438 112.472656 171.078125 C 112.367188 171.238281 112.222656 171.449219 112.039062 171.679688 C 111.777344 172.003906 111.492188 172.308594 111.183594 172.585938 C 110.957031 172.78125 110.71875 172.960938 110.472656 173.125 C 109.710938 173.664062 109.554688 173.652344 109.199219 174.015625 C 108.996094 174.21875 108.824219 174.445312 108.675781 174.6875 C 108.476562 175 108.421875 175.164062 108.148438 175.699219 C 107.972656 176.039062 107.871094 176.234375 107.734375 176.464844 C 107.410156 177 107.023438 177.488281 106.570312 177.925781 C 106.375 178.113281 106.410156 178.054688 105.945312 178.46875 C 105.835938 178.570312 105.570312 178.804688 105.097656 179.253906 C 104.628906 179.703125 104.167969 180.132812 103.515625 180.816406 C 102.863281 181.496094 102.949219 181.457031 102.675781 181.703125 C 102.40625 181.949219 101.789062 182.480469 101.3125 182.925781 C 101.136719 183.085938 101 183.273438 100.894531 183.488281 C 100.847656 183.59375 100.808594 183.703125 100.78125 183.8125 L 100.78125 184.710938 C 100.714844 184.871094 100.609375 185.097656 100.484375 185.371094 C 100.421875 185.5 100.273438 185.808594 100.15625 186.042969 C 99.933594 186.457031 99.761719 186.699219 99.527344 187.054688 C 98.984375 187.871094 98.714844 188.28125 98.472656 188.835938 C 98.40625 188.992188 98.285156 189.347656 98.046875 190.066406 C 97.804688 190.78125 97.769531 190.945312 97.636719 191.28125 C 97.589844 191.40625 97.445312 191.773438 97.007812 192.621094 C 96.515625 193.5625 96.425781 193.621094 95.945312 194.53125 C 95.464844 195.441406 95.710938 195.089844 95.210938 196.085938 C 95.210938 196.085938 94.859375 196.777344 94.792969 197.410156 C 94.773438 197.539062 94.773438 197.667969 94.796875 197.796875 C 94.851562 198.089844 94.976562 198.160156 95.007812 198.398438 C 95.039062 198.640625 94.96875 198.722656 94.90625 198.882812 C 94.808594 199.132812 94.660156 199.351562 94.46875 199.539062 C 94.015625 199.984375 93.636719 200.503906 93.21875 200.984375 C 92.804688 201.46875 92.96875 201.335938 92.253906 202.222656 C 91.539062 203.105469 91.429688 203.179688 90.886719 203.890625 C 90.765625 204.054688 90.890625 203.890625 90.171875 204.878906 C 89.925781 205.222656 89.617188 205.644531 89.402344 206.15625 C 89.324219 206.371094 89.273438 206.589844 89.253906 206.816406 C 89.226562 207.042969 89.214844 207.152344 89.277344 207.214844 C 89.417969 207.347656 89.8125 207.136719 90.035156 206.960938 C 90.261719 206.78125 90.308594 206.707031 90.542969 206.4375 C 90.679688 206.277344 90.859375 206.171875 91.011719 206.03125 C 91.027344 206.015625 91.074219 205.96875 91.101562 205.984375 C 91.125 206 91.117188 206.089844 91.109375 206.121094 C 91.09375 206.207031 91.0625 206.289062 91.015625 206.363281 C 90.980469 206.4375 90.949219 206.507812 90.90625 206.578125 C 90.796875 206.765625 90.796875 206.800781 90.5 207.339844 C 90.160156 207.964844 90.09375 208.046875 90.03125 208.300781 C 89.992188 208.445312 89.972656 208.59375 89.976562 208.746094 C 89.984375 208.957031 89.988281 209.121094 90.070312 209.203125 C 90.308594 209.449219 91.117188 208.949219 91.441406 208.75 C 91.765625 208.550781 92.046875 208.324219 92.484375 207.980469 C 92.921875 207.632812 92.53125 207.960938 94.675781 206.324219 L 95.539062 205.664062 L 96.304688 205.664062 C 96.714844 205.46875 97.046875 205.273438 97.296875 205.121094 C 97.769531 204.832031 98.117188 204.578125 98.394531 204.371094 C 98.671875 204.167969 98.78125 204.078125 98.90625 203.980469 C 98.960938 203.933594 99.027344 203.910156 99.101562 203.917969 C 99.15625 203.929688 99.203125 203.960938 99.242188 204.007812 C 99.308594 204.078125 99.347656 204.160156 99.359375 204.257812 C 99.351562 204.363281 99.335938 204.523438 99.3125 204.71875 C 99.199219 205.816406 99.152344 206.316406 99.09375 206.921875 C 98.988281 207.917969 98.996094 207.769531 98.878906 208.875 C 98.777344 209.890625 98.78125 209.917969 98.667969 211.09375 C 98.535156 212.367188 98.519531 212.386719 98.425781 213.382812 C 98.359375 214.078125 98.304688 214.660156 98.253906 215.441406 C 98.191406 216.324219 98.207031 216.378906 98.148438 217.171875 C 98.09375 217.96875 98.066406 218.109375 97.957031 219.304688 C 97.851562 220.402344 97.871094 220.292969 97.738281 221.875 C 97.601562 223.457031 97.582031 223.519531 97.519531 224.304688 C 97.441406 225.367188 97.402344 226.199219 97.382812 226.683594 C 97.34375 227.496094 97.339844 227.769531 97.308594 228.835938 C 97.242188 230.929688 97.203125 231.984375 97.117188 232.972656 C 96.992188 234.433594 96.921875 235.160156 96.796875 235.554688 C 96.589844 236.234375 96.449219 236.929688 96.367188 237.636719 C 96.359375 237.742188 96.355469 237.851562 96.359375 237.957031 C 96.351562 238.214844 96.363281 238.28125 96.410156 238.339844 C 96.457031 238.394531 96.496094 238.445312 96.605469 238.433594 C 96.714844 238.421875 96.78125 238.332031 96.8125 238.296875 C 96.84375 238.261719 96.886719 238.101562 96.921875 237.851562 C 96.980469 237.496094 97.027344 237.355469 97.042969 237.3125 C 97.09375 237.175781 97.15625 237 97.242188 237 C 97.324219 237 97.480469 237.429688 97.488281 237.449219 C 97.492188 237.632812 97.496094 237.785156 97.507812 237.898438 C 97.515625 238.03125 97.53125 238.160156 97.554688 238.292969 C 97.585938 238.445312 97.628906 238.636719 97.683594 238.640625 C 97.742188 238.648438 97.761719 238.515625 97.871094 238.160156 C 97.984375 237.804688 98.023438 237.691406 98.082031 237.542969 C 98.203125 237.238281 98.253906 237.230469 98.375 236.953125 C 98.496094 236.675781 98.472656 236.621094 98.582031 236.238281 C 98.691406 235.855469 98.707031 235.894531 98.90625 235.277344 C 99.105469 234.660156 99.09375 234.613281 99.226562 234.285156 C 99.320312 234.035156 99.441406 233.796875 99.582031 233.570312 C 99.816406 233.191406 99.941406 233.144531 100.273438 232.710938 C 100.492188 232.441406 100.683594 232.152344 100.839844 231.84375 C 100.9375 231.648438 100.980469 231.515625 101.214844 230.605469 C 101.421875 229.789062 101.527344 229.371094 101.621094 228.941406 C 101.714844 228.511719 101.792969 228.09375 101.847656 227.8125 C 102.023438 226.832031 102.027344 226.613281 102.164062 225.890625 C 102.265625 225.351562 102.359375 224.984375 102.503906 224.367188 C 102.59375 224.003906 102.746094 223.382812 103.097656 222.144531 C 103.453125 220.910156 103.523438 220.726562 103.945312 219.257812 C 104.242188 218.226562 104.390625 217.707031 104.476562 217.328125 C 104.769531 216.105469 104.703125 215.949219 105.003906 214.503906 C 105.15625 213.773438 105.296875 213.234375 105.558594 212.21875 C 105.714844 211.617188 105.71875 211.617188 106.089844 210.21875 C 106.53125 208.554688 106.609375 208.238281 106.648438 208.046875 C 106.722656 207.722656 106.828125 207.210938 107.03125 206.183594 C 107.300781 204.84375 107.390625 204.355469 107.640625 203.644531 C 107.753906 203.316406 107.886719 202.996094 108.035156 202.683594 L 108.351562 202.683594 C 108.425781 202.746094 108.503906 202.800781 108.582031 202.859375 L 109.191406 202.875 L 109.3125 203.4375 C 109.308594 203.578125 109.308594 203.722656 109.308594 203.863281 C 109.378906 204.039062 109.488281 204.1875 109.632812 204.308594 C 109.75 204.414062 110.058594 204.640625 110.449219 204.652344 C 110.609375 204.652344 110.726562 204.617188 110.84375 204.707031 C 110.9375 204.777344 110.988281 204.867188 110.988281 204.984375 C 110.988281 205.054688 110.957031 205.078125 110.890625 205.214844 C 110.890625 205.214844 110.863281 205.269531 110.796875 205.460938 C 110.628906 205.921875 110.671875 206.792969 110.671875 206.792969 C 110.679688 206.992188 110.570312 207.503906 110.351562 208.523438 C 110.308594 208.714844 110.210938 209.167969 109.921875 210.335938 C 109.636719 211.503906 109.511719 212 109.324219 212.691406 C 109.277344 212.847656 109.078125 213.582031 108.773438 214.5625 C 108.539062 215.320312 108.5 215.410156 108.039062 216.820312 C 107.703125 217.859375 107.539062 218.378906 107.375 218.910156 C 107.15625 219.65625 107.011719 220.199219 106.773438 221.082031 C 106.460938 222.25 106.304688 222.832031 106.152344 223.503906 C 105.964844 224.296875 105.730469 225.414062 105.515625 226.738281 C 105.320312 227.957031 105.222656 228.832031 105.199219 229.074219 C 105.152344 229.554688 105.113281 229.96875 105.09375 230.28125 C 104.988281 231.730469 104.988281 233.175781 105.09375 234.621094 C 105.1875 235.894531 105.34375 236.871094 105.417969 237.300781 C 105.453125 237.53125 105.621094 238.492188 105.945312 239.742188 C 106.070312 240.222656 106.253906 240.941406 106.570312 241.863281 C 106.710938 242.277344 106.988281 243.046875 107.414062 243.988281 C 107.574219 244.347656 107.894531 245.035156 108.355469 245.878906 C 108.484375 246.101562 108.847656 246.761719 109.511719 247.777344 C 110.382812 249.117188 110.820312 249.789062 111.511719 250.578125 C 112.738281 251.972656 113.648438 252.511719 113.929688 252.671875 C 114.234375 252.84375 114.550781 252.992188 114.878906 253.121094 C 115.488281 253.363281 116.117188 253.511719 116.769531 253.578125 L 133.164062 253.578125 Z M 133.164062 253.574219 " fill-opacity="1" fill-rule="nonzero"/></g><g fill="#000000" fill-opacity="1"><g transform="translate(22.25754, 299.552693)"><g><path d="M 124.734375 0 C 107.585938 0 91.941406 -2.945312 77.796875 -8.84375 C 63.648438 -14.738281 51.488281 -22.828125 41.3125 -33.109375 C 31.132812 -43.398438 23.3125 -55.347656 17.84375 -68.953125 C 12.375 -82.566406 9.640625 -97.085938 9.640625 -112.515625 C 9.640625 -127.953125 12.375 -142.472656 17.84375 -156.078125 C 23.3125 -169.691406 31.132812 -181.640625 41.3125 -191.921875 C 51.488281 -202.210938 63.648438 -210.300781 77.796875 -216.1875 C 91.941406 -222.082031 107.585938 -225.03125 124.734375 -225.03125 L 153.671875 -225.03125 L 153.671875 -197.71875 L 125.703125 -197.71875 C 113.484375 -197.71875 102.226562 -195.570312 91.9375 -191.28125 C 81.65625 -187 72.707031 -181 65.09375 -173.28125 C 57.488281 -165.5625 51.539062 -156.554688 47.25 -146.265625 C 42.96875 -135.984375 40.828125 -124.734375 40.828125 -112.515625 C 40.828125 -100.515625 42.96875 -89.316406 47.25 -78.921875 C 51.539062 -68.523438 57.488281 -59.46875 65.09375 -51.75 C 72.707031 -44.039062 81.65625 -38.039062 91.9375 -33.75 C 102.226562 -29.46875 113.484375 -27.328125 125.703125 -27.328125 L 153.671875 -27.328125 L 153.671875 0 Z M 124.734375 0 "/></g></g></g></svg>